REM MD5 7f9910f769b3657ba5d49878b74c140d
FILE "Pub Demo 03 (Europe).bin" BINARY
  TRACK 01 MODE2/2352
    INDEX 01 00:00:00
  TRACK 02 AUDIO
    INDEX 00 56:47:28
    INDEX 01 56:49:28
  TRACK 03 AUDIO
    INDEX 00 58:49:28
    INDEX 01 58:51:28
  TRACK 04 AUDIO
    INDEX 00 60:23:46
    INDEX 01 60:25:46
  TRACK 05 AUDIO
    INDEX 00 61:26:48
    INDEX 01 61:28:48
  TRACK 06 AUDIO
    INDEX 00 61:33:63
    INDEX 01 61:35:63
REM LEADOUT 64:37:20
